<svg width="1000" height="1000" viewBox="0 0 1000 1000" fill="none" xmlns="http://www.w3.org/2000/svg">
<rect width="1000" height="1000" rx="200" fill="url(#paint0_linear_1_4)"/>
<path d="M935.75 608.587C935.594 601.648 934.279 594.784 931.859 588.278L857.704 385.149C851.992 369.747 840.423 357.227 825.52 350.318C810.616 343.41 793.586 342.672 778.141 348.266L514.317 443.858L561.316 175.405C564.227 159.159 560.568 142.422 551.141 128.873C541.715 115.325 527.294 106.075 511.049 103.156L298.349 65.2227C290.308 63.8089 282.067 63.9968 274.098 65.7756C266.13 67.5543 258.592 70.889 251.915 75.5882C245.239 80.2874 239.556 86.2586 235.193 93.1593C230.829 100.06 227.872 107.754 226.489 115.801L129.223 672.627C124.777 697.177 125.772 722.404 132.14 746.527C138.508 770.65 150.093 793.082 166.078 812.238C182.062 831.395 202.056 846.81 224.649 857.395C247.241 867.981 271.882 873.478 296.832 873.5H873.5C890.01 873.5 905.843 866.942 917.517 855.267C929.192 843.593 935.75 827.76 935.75 811.25V608.587ZM297.687 764.563C285.376 764.563 273.34 760.912 263.103 754.072C252.866 747.231 244.888 737.509 240.176 726.135C235.464 714.76 234.232 702.243 236.634 690.168C239.036 678.093 244.964 667.001 253.67 658.295C262.376 649.589 273.468 643.661 285.543 641.259C297.618 638.857 310.135 640.089 321.51 644.801C332.884 649.513 342.606 657.491 349.446 667.728C356.287 677.965 359.937 690.001 359.937 702.313C359.937 718.822 353.379 734.656 341.705 746.33C330.031 758.004 314.197 764.563 297.687 764.563ZM463.895 731.959L501.945 514.395L799.267 406.625L873.5 609.366L456.347 760.672C459.673 751.333 462.199 741.727 463.895 731.959ZM873.5 811.25H498.988L873.5 675.506V811.25Z" fill="url(#paint1_linear_1_4)"/>
<defs>
<linearGradient id="paint0_linear_1_4" x1="500" y1="0" x2="500" y2="1000" gradientUnits="userSpaceOnUse">
<stop offset="0.305" stop-color="white"/>
<stop offset="1" stop-color="#D1D5DC"/>
</linearGradient>
<linearGradient id="paint1_linear_1_4" x1="531.122" y1="64.2858" x2="531.122" y2="873.5" gradientUnits="userSpaceOnUse">
<stop stop-color="#0F172B"/>
<stop offset="1" stop-color="#0F172B" stop-opacity="0.9"/>
</linearGradient>
</defs>
</svg>
